<svg width="600" height="370" xmlns="http://www.w3.org/2000/svg" style="font-size: 30px; color:white;">
  <text x="220" y="60">H<tspan dy="3" font-size=".7em">0</tspan> = TRUE</text>
  <text x="420" y="60">H<tspan dy="3" font-size=".7em">0</tspan> = FALSE</text>
  <text x="30" y="120">Decide to</text>
  <text x="30" y="170">reject H<tspan dy="3" font-size=".7em">0</tspan></text>
  <text x="30" y="270">Decide to</text>
  <text x="30" y="320">not reject H<tspan dy="3" font-size=".7em">0</tspan></text>
  <g id="boxes" style="stroke:white; stroke-width:5px;">
  <rect width="200" height="150" x="200" y="70" fill="red"/>
  <rect width="200" height="150" x="200" y="220" fill="lightgreen"/>
  <rect width="200" height="150" x="400" y="70" fill="lightgreen"/>
  <rect width="200" height="150" x="400" y="220" fill="red"/>
  </g>
  <g id="border" style="stroke:none; stroke-width:5px;">
  <rect class="alpha"   width="190" height="140" x="205" y="75" fill="none"/>
  <rect class="oneminalpha" width="190" height="140" x="205" y="225" fill="none"/>
  <rect class="power"   width="190" height="140" x="405" y="75" fill="none"/>
  <rect class="beta"    width="190" height="140" x="405" y="225" fill="none"/>
  </g>
  <g style="fill:white;">
  <text x="220" y="120">Alpha</text>
  <text x="220" y="170">α</text>
  <text x="420" y="270">Beta</text>
  <text x="420" y="320">β</text>
  </g>
  <g style="fill:black;">
  <text x="220" y="270">1 - α</text>
  <text x="420" y="120">Power</text>
  <text x="420" y="170">1 - β</text>
  </g>
</svg>